# MagicaVoxel @ ephtracy

# material
mtllib grass.mtl
usemtl palette

# normals
vn -1 0 0
vn 1 0 0
vn 0 0 1
vn 0 0 -1
vn 0 -1 0
vn 0 1 0

# texcoords
vt 0.900391 0.5
vt 0.904297 0.5

# verts
v -5 0 5
v -5 0 -5
v -5 9 2
v -5 9 -3
v -5 10 5
v -5 10 2
v -5 10 -3
v -5 10 -5
v 5 0 5
v 5 0 -5
v 5 9 5
v 5 9 4
v 5 9 -0
v 5 9 -2
v 5 10 5
v 5 10 4
v 5 10 -0
v 5 10 -2
v 5 10 -5
v -5 0 5
v -5 10 5
v 1 9 5
v 1 10 5
v 5 0 5
v 5 9 5
v 5 10 5
v -5 0 -5
v -5 10 -5
v -2 9 -5
v -2 10 -5
v 0 9 -5
v 0 10 -5
v 5 0 -5
v 5 10 -5
v -5 0 5
v 5 0 5
v -5 0 -5
v 5 0 -5
v -5 10 5
v 1 10 5
v 5 10 5
v 0 10 4
v 1 10 4
v 3 10 4
v 5 10 4
v -4 10 3
v 0 10 3
v 2 10 3
v 3 10 3
v -5 10 2
v -4 10 2
v -2 10 2
v 2 10 2
v -4 10 1
v -2 10 1
v 2 10 -0
v 5 10 -0
v 0 10 -1
v 2 10 -1
v -3 10 -2
v -2 10 -2
v 3 10 -2
v 5 10 -2
v -5 10 -3
v -4 10 -3
v -3 10 -3
v -2 10 -3
v 0 10 -3
v 3 10 -3
v -5 10 -5
v -2 10 -5
v 0 10 -5
v 5 10 -5

# faces
f 3/1/1 2/1/1 1/1/1
f 4/1/1 2/1/1 3/1/1
f 5/1/1 3/1/1 1/1/1
f 6/2/1 4/2/1 3/2/1
f 6/1/1 3/1/1 5/1/1
f 7/1/1 2/1/1 4/1/1
f 7/2/1 4/2/1 6/2/1
f 8/1/1 2/1/1 7/1/1
f 9/1/2 10/1/2 11/1/2
f 11/1/2 10/1/2 12/1/2
f 12/1/2 10/1/2 13/1/2
f 13/1/2 10/1/2 14/1/2
f 11/2/2 12/2/2 15/2/2
f 12/1/2 13/1/2 16/1/2
f 15/2/2 12/2/2 16/2/2
f 13/2/2 14/2/2 17/2/2
f 16/1/2 13/1/2 17/1/2
f 14/1/2 10/1/2 18/1/2
f 17/2/2 14/2/2 18/2/2
f 18/1/2 10/1/2 19/1/2
f 22/1/3 21/1/3 20/1/3
f 23/1/3 21/1/3 22/1/3
f 24/1/3 22/1/3 20/1/3
f 25/2/3 23/2/3 22/2/3
f 25/1/3 22/1/3 24/1/3
f 26/2/3 23/2/3 25/2/3
f 27/1/4 28/1/4 29/1/4
f 29/1/4 28/1/4 30/1/4
f 27/1/4 29/1/4 31/1/4
f 29/2/4 30/2/4 31/2/4
f 31/2/4 30/2/4 32/2/4
f 27/1/4 31/1/4 33/1/4
f 31/1/4 32/1/4 33/1/4
f 33/1/4 32/1/4 34/1/4
f 37/1/5 36/1/5 35/1/5
f 38/1/5 36/1/5 37/1/5
f 39/1/6 40/1/6 42/1/6
f 40/2/6 41/2/6 43/2/6
f 42/1/6 40/1/6 43/1/6
f 43/2/6 41/2/6 44/2/6
f 44/2/6 41/2/6 45/2/6
f 39/1/6 42/1/6 46/1/6
f 42/2/6 43/2/6 47/2/6
f 46/1/6 42/1/6 47/1/6
f 43/2/6 44/2/6 47/2/6
f 47/2/6 44/2/6 48/2/6
f 44/1/6 45/1/6 49/1/6
f 48/2/6 44/2/6 49/2/6
f 39/1/6 46/1/6 50/1/6
f 47/2/6 48/2/6 51/2/6
f 50/1/6 46/1/6 51/1/6
f 46/2/6 47/2/6 51/2/6
f 51/2/6 48/2/6 52/2/6
f 48/1/6 49/1/6 53/1/6
f 52/2/6 48/2/6 53/2/6
f 51/2/6 52/2/6 54/2/6
f 50/2/6 51/2/6 54/2/6
f 52/1/6 53/1/6 55/1/6
f 54/2/6 52/2/6 55/2/6
f 53/1/6 49/1/6 56/1/6
f 55/1/6 53/1/6 56/1/6
f 54/1/6 55/1/6 56/1/6
f 49/1/6 45/1/6 57/1/6
f 56/1/6 49/1/6 57/1/6
f 54/1/6 56/1/6 58/1/6
f 56/2/6 57/2/6 59/2/6
f 58/1/6 56/1/6 59/1/6
f 54/1/6 58/1/6 60/1/6
f 60/1/6 58/1/6 61/1/6
f 59/2/6 57/2/6 62/2/6
f 58/2/6 59/2/6 62/2/6
f 62/2/6 57/2/6 63/2/6
f 50/2/6 54/2/6 64/2/6
f 54/1/6 60/1/6 65/1/6
f 64/2/6 54/2/6 65/2/6
f 60/2/6 61/2/6 66/2/6
f 65/1/6 60/1/6 66/1/6
f 61/1/6 58/1/6 67/1/6
f 66/2/6 61/2/6 67/2/6
f 58/2/6 62/2/6 68/2/6
f 67/1/6 58/1/6 68/1/6
f 62/1/6 63/1/6 69/1/6
f 68/2/6 62/2/6 69/2/6
f 65/1/6 66/1/6 70/1/6
f 64/1/6 65/1/6 70/1/6
f 66/1/6 67/1/6 70/1/6
f 67/2/6 68/2/6 71/2/6
f 70/1/6 67/1/6 71/1/6
f 68/1/6 69/1/6 72/1/6
f 71/2/6 68/2/6 72/2/6
f 69/1/6 63/1/6 73/1/6
f 72/1/6 69/1/6 73/1/6
